<svg width="800" height="800" viewBox="0 0 100 100" xmlns="http://www.w3.org/2000/svg">
  <defs>
    <linearGradient x1="0" y1="30" x2="0" y2="70" id="a" gradientUnits="userSpaceOnUse">
      <stop style="stop-color:#ff7500;stop-opacity:1" offset="0"/>
      <stop style="stop-color:red;stop-opacity:1" offset="1"/>
    </linearGradient>
  </defs>
  <path style="fill:#f0e215;stroke:#000;stroke-width:3;stroke-opacity:.5" d="M18 68V46l15-15q3-3 6 0t6-3q5-5 8 1t6-1q7-8 11 1l4 7q1 2 4 3 2 0 2 2 5 14-1 28-3 1-3 3-5 7-10 2t-10 1q-7 7-14 0-3-3-6-1-9 7-18-5z"/>
  <path style="fill:url(#a);stroke:#ff7500;stroke-width:1" d="M20 70V50l3 9V48l3 4 1-10 1 13 2-4 1-13 1 13 1.5 3 3-20L40 57l7-26v23l3-6 4-12 4 14 5-18 4 17 4-10 2 8 2 4 1-7 1 11 2-6v15l-2-6-1 7-2-8-3 14V56l-4 6-1 10-3-16-3 15-2-14-4 17-2-17-4 6-1 10-4-17-2 16-3-12-3-2-2 13-1-9-1-4-2 12-2-8-3 7-2-7z"/>
  <path style="fill:none;stroke:#0000ca;stroke-width:3" d="M14.5 50A28 28 0 1 1 85 50m-66-5v25m61-25v25"/>
  <path style="fill:#0000ca" d="M16 45v25a15 15 0 0 1 0-25m67 25V45a15 15 0 0 1 0 25"/>
</svg>
