<svg xmlns="http://www.w3.org/2000/svg" xml:space="preserve" width="4.2cm" height="4cm" style="shape-rendering:geometricPrecision;text-rendering:geometricPrecision;image-rendering:optimizeQuality;fill-rule:evenodd;clip-rule:evenodd" viewBox="0 0 4200 4000">
  <path style="fill:#db65ff;fill-opacity:.909804" d="M126 71h3978v3877H126z"/>
  <path style="fill:#482755;fill-opacity:.960784" d="M422 361h3386v3298H422z"/>
  <path d="M1438 2187v687h-336V1010c224-9 355-14 393-14 299 0 518 45 656 136 139 90 208 231 208 423 0 427-256 641-768 641-38 0-89-3-153-9zm0-890v595c57 6 102 9 135 9 153 0 265-25 336-75s106-133 106-246c0-193-158-289-475-289-35 0-69 2-102 6zm1999 510c-58-38-121-57-190-57-75 0-142 33-200 101-58 67-87 149-87 246v777h-323V1510h323v125c90-101 211-151 361-151 110 0 194 16 253 50l-137 273z" style="fill:#db65ff;fill-rule:nonzero"/>
</svg>
