<svg xmlns="http://www.w3.org/2000/svg" width="40" height="40" viewBox="0 0 25 25" style="enable-background:new 0 0 512 512" xml:space="preserve">
  <path d="M21.9 3.6c0-1.7-1.4-3.1-3.1-3.1h-8c-.5 0-.9.1-1.2.3-.3.1-.7.3-.9.5L4.1 5.8c-.3.2-.5.5-.7.9s-.3.8-.3 1.3v13.3c0 1.7 1.4 3.1 3.1 3.1h12.6c1.7 0 3.1-1.4 3.1-3.1zm-9.4 3.6c1.5 0 2.7 1.2 2.7 2.7s-1.2 2.7-2.7 2.7-2.7-1.2-2.7-2.7 1.2-2.7 2.7-2.7zM16.1 19H9.6c-1.7 0-2.3-.8-1.9-1.8.5-1.3 1.5-2.3 2.7-2.8.2-.1.4-.1.6 0 1 .4 2.2.3 3.1 0 .2-.1.4-.1.6 0 1.2.6 2.2 1.6 2.7 2.9.3.8-.4 1.7-1.3 1.7z" fill="#bbb" data-original="#000000"/>
</svg>
