<svg xmlns="http://www.w3.org/2000/svg" width="512" height="512" viewBox="0 0 512 512" style="enable-background:new 0 0 512 512" xml:space="preserve">
  <path d="M328.836 247.239h-43.814c-6.633 0-12.059-5.426-12.059-12.059l-6.029-102.184s-9.757-84.642 40.849-95.763c0 0 20.577-40.04 86.475-27.212.901.175 1.767.499 2.641.769a100.164 100.164 0 0 1 41.028 24.715c35.888 35.712 28.671 77.902 29.571 83.15 0 29.313.463-3.268-6.029 116.525 0 6.633-5.426 12.059-12.059 12.059h-46.612" fill="#361919" data-original="#7f7369"/>
  <path d="M336.455 247.239v-14.34c-27.086-11.969-43.972-37.583-45.396-65.661-.009-.186-.039-.778-.043-.888a76.053 76.053 0 0 1-.064-2.99c.014-45.116-.027-42.376.034-43.118-.452-24.079 3.273-74.592 41.571-83.009 0 0 12.61-24.532 49.694-29.038-28.257-3.105-61.402 5.29-74.469 29.038-34.149 7.506-42.364 49.087-41.554 83.852.011.484.024.957.039 1.417.2 6.445.667 10.495.667 10.495l6.029 102.184c0 6.633 5.426 12.059 12.059 12.059l51.433-.001z" data-original="#72655a"/>
  <path d="m229.074 470.771 12.963-115.835c4.542-34.977 2.68-48.415 13.966-62.11-3.486-4.238-8.462-8.191-11.743-10.195l-.361-.089c-12.204-7.311-22.479-7.617-45.158-13.856l-23.191-11.101v-27.701c-19.43 8.591-41.77 8.291-60.473.158l-.1 27.657-23.091 10.986c-22.533 6.2-32.929 6.531-45.157 13.856l-.361.089a32.188 32.188 0 0 0-3.187 2.234c-17.473 12.544-17.75 28.841-19.256 40.884l-6.941 62.017c-9.775 88.754-9.479 81.614-9.479 88.456-.153 11.264 6.757 28.27 27.751 28.27 1.947 0 219.087.01 220.745-.016-18.805-.313-28.575-14.658-26.927-33.704z" fill="#e9b2a3" data-original="#dd9a5e"/>
  <path d="M32.508 476.188c-.169-9.786 1.877-9.68 17.208-168.493 1.602-13.138 5.585-23.871 17.045-32.754-1.736.551-10.507 1.895-20.034 7.602l-.361.089a32.279 32.279 0 0 0-3.187 2.234c-17.473 12.545-17.751 28.841-19.256 40.884-.123 1.098-16.417 145.674-16.417 150.473-.153 11.264 6.757 28.27 27.751 28.27h25.002c-18.007 0-28.067-13.546-27.751-28.305zm107.478-194.833v-45.306c-9.003-.604-17.43-2.756-24.908-6.007l-.1 27.657 25.008 23.656z" fill="#e3927b" data-original="#d38d54"/>
  <path d="M504.31 470.771c-17.658-156.374-16.663-151.961-18.244-159.604-2.565-12.407-10.045-22.195-20.429-28.535l-.361-.089c-4.418-2.647-9.345-4.733-14.634-6.257l-50.913-12.675c-1.655-.749-2.8-3.214-2.8-6.024v-24.558c-19.19 8.368-41.554 8.236-60.474-.129v24.686c0 2.81-1.146 5.275-2.8 6.024-43.069 11.474-52.649 11.206-65.548 18.932l-.361.089c-14.248 8.702-19.756 20.495-21.654 36.064L229.074 470.77c-1.705 19.716 8.746 33.722 27.562 33.722h220.113c20.995 0 27.904-17.006 27.751-28.27v-.035a53.29 53.29 0 0 0-.19-5.416z" fill="#ffc499" data-original="#eab883"/>
  <path d="M253.886 476.223v-.035a53.027 53.027 0 0 1 .189-5.416l17.018-161.077c1.819-14.918 6.901-26.704 21.229-35.795-4.206 1.274-13.795 2.4-24.216 8.643l-.361.089c-14.248 8.702-19.756 20.496-21.654 36.064l-17.018 152.076c-1.704 19.716 8.746 33.722 27.561 33.722h25.002c-20.993-.001-27.903-17.007-27.75-28.271z" fill="#d89e74" data-original="#d8a373"/>
  <path d="M495.018 387.748c-8.026-71.238-7.679-70.412-8.954-76.581-2.58-12.477-10.143-22.256-20.429-28.535a132.62 132.62 0 0 1-.361-.089c-4.418-2.647-9.345-4.733-14.635-6.257l-50.913-12.675c-1.655-.75-2.8-3.214-2.8-6.024V232.9c-19.345 8.547-41.596 8.341-60.474 0v24.687c0 2.81-1.146 5.275-2.8 6.024-43.069 11.474-52.649 11.206-65.548 18.932l-.361.089c-14.12 8.62-19.758 20.519-21.654 36.064l-7.728 69.052 48.709 5.11a4.903 4.903 0 0 1 4.385 5.122l-5.35 106.512h161.461l-5.609-106.1a5.325 5.325 0 0 1 4.762-5.577l48.299-5.067z" fill="#d83d3d" data-original="#d83d3d"/>
  <path d="m287.073 392.859-48.709-5.11-9.291 83.023c-1.705 19.716 8.746 33.722 27.561 33.722h29.473l5.35-106.512a4.9 4.9 0 0 0-4.384-5.123z" fill="#d83d3d" data-original="#d83d3d"/>
  <path d="m238.364 387.748 24.215 2.54 8.515-80.593c1.818-14.915 6.899-26.702 21.229-35.795-6.054 1.623-14.867 3.042-24.216 8.643l-.361.089c-10.421 6.362-17.871 16.174-20.428 28.535-1.568 7.58-1.272 9.233-8.954 76.581z" fill="#a82626" data-original="#a82626"/>
  <path d="M244.079 282.632a132.62 132.62 0 0 1-.361-.089c-12.231-7.327-22.671-7.671-44.999-13.817l.021-.04-23.191-11.101-.168.253a2.628 2.628 0 0 0-.005-.091l-30.245 28.476-30.156-28.524-23.091 10.986c-22.533 6.199-32.93 6.531-45.158 13.856l-.361.089c-14.249 8.701-19.756 20.499-21.654 36.064l-7.73 69.07 47.778 5.012a5.702 5.702 0 0 1 5.1 5.957L64.548 504.49h161.461L220.4 398.403a5.34 5.34 0 0 1 4.774-5.592l12.771-1.34c9.364-77.68 6.626-84.653 17.969-98.538-2.485-3.043-9.121-8.645-11.835-10.301z" fill="#9294d6" data-original="#70bbef"/>
  <path d="m229.074 470.771 8.875-79.306-.001.009-12.771 1.34a5.339 5.339 0 0 0-4.774 5.592l5.608 106.084c17.875-.003 29.612-.007 29.992-.013-18.807-.315-28.577-14.66-26.929-33.706z" fill="#9294d6" data-original="#70bbef"/>
  <path d="M49.717 307.695c1.602-13.138 5.585-23.871 17.045-32.754-2.27.645-10.806 2.074-20.034 7.602l-.361.089c-3.381 2.065-8.415 6.115-11.836 10.303-12.105 14.819-8.813 26.506-17.547 94.831l24.712 2.592c-.073.788.992-9.853 8.021-82.663z" fill="#7375b6" data-original="#4caee5"/>
  <path d="m420.119 268.687-20.39-5.076c-1.655-.75-2.8-3.214-2.8-6.024V229.9c-19.507 8.619-41.784 8.257-60.474 0v27.687c0 2.81-1.146 5.275-2.8 6.024l-20.697 5.152c24.874 41.836 82.306 41.853 107.161-.076z" fill="#ffc499" data-original="#eab883"/>
  <path d="M50.347 128.338V102.27c0-76.729 86.744-121.122 148.978-77.768 48.816 34.083 39.518 84.204 40.592 103.836" fill="#a96c08" data-original="#4c4846"/>
  <path d="M50.347 128.338V102.27c0-76.729 86.744-121.122 148.978-77.768 48.816 34.083 39.518 84.204 40.592 103.836" fill="#a96c08" data-original="#4c4846"/>
  <path d="M154.583 7.957C99.459 2.485 50.347 45.583 50.347 102.271v26.068h18.9v-26.068c.001-48.731 37.002-89.51 85.336-94.314z" fill="#4c2102" data-original="#3f3b39"/>
  <path d="M244.634 136.815c0 10.924-10.574 19.778-23.618 19.778v-39.554c13.044-.001 23.618 8.853 23.618 19.776zm-199.005 0c0 10.924 10.574 19.778 23.619 19.778v-39.554c-13.045-.001-23.619 8.853-23.619 19.776z" fill="#e9b2a3" data-original="#dd9a5e"/>
  <path d="M221.017 138.815v17.776c13.043 0 23.618-8.854 23.618-19.778 0-3.197-.912-6.215-2.521-8.888-3.889 6.458-11.872 10.89-21.097 10.89zM48.151 127.926c-7.837 13.016 3.406 28.666 21.098 28.666v-17.776c-9.227-.001-17.211-4.433-21.098-10.89z" fill="#e3927b" data-original="#d38d54"/>
  <path d="M203.533 89.559c-.276-7.58-6.518-11.732-12.539-10.794-1.407.219-2.962.446-3.957.587-29.918 4.247-58.359 3.979-87.763-.587-5.975-.931-12.267 3.155-12.539 10.796-.411 11.26-5.091 19.633-12.223 24.848-2.971 2.175-5.163 2.917-5.263 2.973 0 49.121-.586 52.403 2.045 63.531a75.48 75.48 0 0 0 13.275 28.177c35.309 46.695 109.232 37.579 131.15-17.81 7.255-18.328 5.3-32.243 5.3-73.899-.284-.212-16.702-6.034-17.486-27.822z" fill="#ffcabc" data-original="#edae6b"/>
  <path d="M97.073 193.448c-5.358-19.099-2.385-30.767-3.223-66.969 0-3.727 1.871-6.896 4.155-8.514 9.009-6.408 13.099-16.887 13.354-28.073.089-3.763 1.851-6.995 4.453-9.021a310.15 310.15 0 0 1-16.54-2.108c-5.958-.927-12.265 3.144-12.538 10.797-.412 11.241-5.083 19.627-12.223 24.848-2.972 2.175-5.163 2.917-5.263 2.973 0 49.421-.029 46.868.071 49.301 1.533 34.671 26.274 62.868 57.155 70.235-1.437-1.075-23.377-21.976-29.401-43.469z" fill="#e9b2a3" data-original="#dd9a5e"/>
  <path d="m175.551 257.586-30.417 28.638 16.42 16.547c3.135 3.16 8.332 2.852 11.073-.656l26.115-33.43-23.191-11.099z" fill="#dadada" data-original="#dadada"/>
  <path d="m187.228 263.175-11.677-5.589-30.418 28.638 10.866 10.95zm-23.441 41.132a7.402 7.402 0 0 0 4.336.526l-4.336-.526z" fill="#ceccca" data-original="#ceccca"/>
  <path d="m114.977 257.7 30.156 28.524-16.42 16.547c-3.135 3.16-8.332 2.852-11.073-.656l-26.115-33.43 23.452-10.985z" fill="#dadada" data-original="#dadada"/>
  <path d="m123.874 286.113 10.394 11.061 10.865-10.95-30.155-28.524-12.363 5.791z" fill="#ceccca" data-original="#ceccca"/>
  <path d="M361.583 272.865v-36.824c-8.971-.615-17.478-2.763-25.128-6.142-.76 21.866 1.981 31.544-2.8 33.711l-20.697 5.152c5.152 8.666 12.119 15.992 20.332 21.383l21.487-7.901c.001-.001 6.806-3.378 6.806-9.379z" fill="#d89e74" data-original="#d8a373"/>
  <path d="M435.089 138.536c4.27.199 7.635 3.715 7.635 7.99v5.738c-.02 10.19.69 20.084-3.223 33.048-3.94 13.066-11.365 25.072-22.522 34.997-47.075 41.922-122.716 10.275-125.92-53.07-.014-.286-.004.081-.043-.888a76.053 76.053 0 0 1-.064-2.99v-42.336c0-4.465 3.146-8.284 7.515-9.208 7.751-1.639 20.274-6.091 31.633-18.182 2.855-3.038 7.726-2.88 10.38.335 11.022 13.353 40.791 42.05 94.609 44.566z" fill="#ffdabf" data-original="#f7cf9c"/>
  <path d="M323.804 197.011c-10.021-20.25-7.694-34.604-7.85-62.749v-29.293c-6.677 3.917-12.915 5.879-17.487 6.847-4.368.924-7.515 4.742-7.515 9.208v42.336c0 1.254.066 3.207.071 3.323.004.101.107 1.85.176 2.73 3.502 44.544 44.571 76.005 88.139 68.785-23.949-3.97-44.653-19.268-55.534-41.187z" fill="#ffc499" data-original="#eab883"/>
  <path d="m434.747 272.328-14.629-3.641c-11.203 18.898-31.014 31.466-53.603 31.466 0 0 68.535 68.544 68.232-27.825z" fill="#b72c2c" data-original="#b72c2c"/>
  <path d="m298.606 272.328 14.628-3.641c11.203 18.898 31.014 31.466 53.603 31.466 0 0-68.534 68.544-68.231-27.825z" fill="#b72c2c" data-original="#b72c2c"/>
  <path d="M334.237 290.556c-12.093 6.438-26.027 9.51-34.952-2.429 7.101 72.484 67.553 12.027 67.553 12.027-11.928-.001-23.08-3.508-32.601-9.598z" fill="#a82626" data-original="#a82626"/>
  <path d="M399.116 290.556c12.093 6.438 26.027 9.51 34.952-2.429-7.101 72.484-67.552 12.027-67.552 12.027 11.927-.001 23.079-3.508 32.6-9.598z" fill="#a82626" data-original="#a82626"/>
  <path d="M307.854 276.645c-28.747-36.241-84.266-32.309-108.144 6.322-13.973 22.575-8.702 43.144-9.859 49.437h132.304c-.419-12.923 3.144-33.786-14.301-55.759z" fill="#eda42c" data-original="#996123"/>
  <path d="M207.798 302.43c.296-1.253.995-3.73 1.026-3.834 7.374-24.455 28.702-43.268 55.26-46.507a66.143 66.143 0 0 0-64.375 30.878c-13.974 22.575-8.701 43.139-9.859 49.437h16.164c.019-13.8-.513-20.238 1.784-29.974z" fill="#8e551c" data-original="#8e551c"/>
  <path d="M341.849 387.774c-5.811-18.031-13.347-29.286-19.092-35.156-3.316 3.267-7.915 5.59-13.147 6.424 9.597 13.837 7.495 27.648 7.016 35.865-.218 3.749 3.155 6.693 6.833 5.929l12.249-2.54c4.763-.987 7.634-5.891 6.141-10.522z" fill="#eda42c" data-original="#996123"/>
  <path d="M329.204 341.212c0 10.591-10.252 19.176-22.899 19.176v-38.349c12.647-.001 22.899 8.583 22.899 19.173z" fill="#efd0a3" data-original="#efd0a3"/>
  <path d="M170.156 387.774c5.811-18.031 13.347-29.286 19.092-35.156 3.316 3.267 7.915 5.59 13.147 6.424-9.597 13.837-7.495 27.648-7.016 35.865.218 3.749-3.155 6.693-6.833 5.929l-12.249-2.54c-4.763-.987-7.633-5.891-6.141-10.522z" fill="#8e551c" data-original="#8e551c"/>
  <path d="M182.802 341.212c0 10.591 10.252 19.176 22.899 19.176v-38.349c-12.647-.001-22.899 8.583-22.899 19.173z" fill="#efd0a3" data-original="#efd0a3"/>
  <path d="M306.305 343.962v16.424c16.969 0 27.82-14.821 20.696-27.386-3.675 6.48-11.56 10.962-20.696 10.962zM185.006 333c-7.138 12.589 3.773 27.386 20.696 27.386v-16.424c-9.138 0-17.022-4.482-20.696-10.962z" fill="#e2bf91" data-original="#e2bf91"/>
  <path d="m341.063 504.493-5.217-46.619c-1.19-9.763-4.623-17.962-14.354-23.906l-.239-.059c-8.516-5.101-14.693-4.889-43.449-12.55-3.179-1.44-1.334-7.608-1.856-23.272-12.847 5.622-27.719 5.388-40.085-.085-.508 15.3 1.336 21.912-1.856 23.357-28.7 7.646-34.924 7.443-43.449 12.55l-.239.059c-6.859 4.19-11.835 10.664-13.541 18.914-1.018 4.919-.751 5.318-6.029 51.609l170.314.002z" fill="#efd0a3" data-original="#efd0a3"/>
  <path d="M170.748 504.493h170.315l-5.217-46.619c-1.188-9.751-4.636-17.971-14.354-23.906l-.239-.059c-8.443-5.057-15.248-5.069-38.045-11.204v6.031c0 4.321-1.016 8.438-2.814 12.065-.297.601-.78 1.489-1.24 2.233l-.341.538a27.58 27.58 0 0 1-1.485 2.062 24.676 24.676 0 0 1-.928 1.102 20.785 20.785 0 0 1-.542.599l-.01.011a27.494 27.494 0 0 1-.661.677c-.065.065-.129.132-.194.196-.256.249-.517.494-.783.733-.076.068-.154.133-.23.201-.166.148-.339.29-.507.436a2.568 2.568 0 0 1-.079.068c-.102.085-.206.167-.309.251a27.71 27.71 0 0 1-.881.683c-.177.131-.355.26-.534.387l-.267.186-.089.062c-.186.127-.374.25-.563.372l-.086.056-.26.167c-.16.1-.323.196-.485.292l-.162.098-.071.042c-.071.042-.141.085-.212.126-.313.178-.629.352-.949.518-.043.023-.088.044-.132.066a.902.902 0 0 0-.044.022l-.16.079c-.212.107-.425.214-.641.315-.116.054-.234.106-.351.158-.216.097-.432.194-.65.285-.132.056-.265.109-.398.162a28.207 28.207 0 0 1-1.042.396 29.03 29.03 0 0 1-.648.22l-.323.104a2.534 2.534 0 0 1-.081.026c-.06.019-.122.035-.183.053a46.89 46.89 0 0 1-.534.156l-.262.074-.087.025c-.357.095-.717.184-1.08.264l-.161.034a25.84 25.84 0 0 1-1.787.324c-.877.128-1.767.214-2.668.256-.107.005-.214.007-.322.011l-.173.006c-.157.004-.313.008-.47.009l-.13.001h-.033l-.163.001-.163-.001h-.033l-.13-.001a37.193 37.193 0 0 1-.47-.009l-.173-.006c-.107-.004-.214-.006-.322-.011a27.229 27.229 0 0 1-4.455-.58l-.161-.034a27.427 27.427 0 0 1-1.08-.264l-.087-.025-.262-.074a24.475 24.475 0 0 1-.528-.154l-.188-.055-.081-.026a30.501 30.501 0 0 1-1.383-.475 26.426 26.426 0 0 1-1.027-.407 27.147 27.147 0 0 1-.65-.285c-.117-.053-.235-.104-.351-.158-.216-.101-.428-.208-.641-.315l-.16-.079-.044-.022-.132-.066c-.32-.166-.636-.339-.949-.518a9.09 9.09 0 0 1-.212-.126l-.071-.042-.162-.098a24.033 24.033 0 0 1-.486-.292l-.26-.167-.087-.056a27.238 27.238 0 0 1-11.303-14.991c-1.66-5.503-1.009-9.423-1.155-13.95l-5.775 1.438c-18.117 4.944-24.375 4.969-32.463 9.815l-.239.059c-6.772 4.136-11.826 10.623-13.541 18.914-1.02 4.909-.818 5.868-6.031 51.61z" fill="#ffb4d0" data-original="#f9b938"/>
  <path d="M189.448 475.101c2.085-18.805.62-34.584 16.441-44.739l.239-.062c1.754-1.105 3.642-2.051 5.617-2.876.362-.285.714-.547 1.051-.782-8.004 2.285-14.648 2.722-22.239 7.27l-.239.059c-6.912 4.221-11.883 10.731-13.579 19.12-1.002 4.932-.774 5.615-5.991 51.405h15.57l3.13-29.395z" fill="#ff82b1" data-original="#eaa224"/>
  <path d="M249.785 437.149c.125-.186 5.865-1.884 6.131-9.155v-25.79c-7.313-.038-14.084-1.559-20.054-4.201-.508 15.305 1.336 21.912-1.856 23.357l-5.21 1.297c.146 4.519-.505 8.437 1.155 13.95.708 2.345 1.824 4.73 2.925 6.468l16.909-5.926z" fill="#e2bf91" data-original="#e2bf91"/>
  <path d="M252.537 305.343c-11.288 18.777-35.252 15.889-43.76 14.17a2.57 2.57 0 0 0-3.075 2.525c0 30.554-.932 37.273 2.136 47.422 6.226 20.65 25.291 35.496 47.564 35.743 27.76.346 50.904-22.001 50.904-50.293v-32.871a2.571 2.571 0 0 0-3.076-2.525c-8.508 1.719-32.472 4.607-43.76-14.17-1.574-2.618-5.359-2.618-6.933-.001z" fill="#fce3bb" data-original="#fce3bb"/>
  <path d="M231.445 363.564c-1.312-7.572-.47-10.495-.742-43.652-8.852 1.704-17.49.497-21.927-.399a2.57 2.57 0 0 0-3.075 2.525c0 31.018-.914 37.332 2.136 47.422 7.575 25.118 33.916 41.056 60.667 34.176-19.002-4.886-33.654-20.481-37.059-40.072z" fill="#efd0a3" data-original="#efd0a3"/>
  <path d="M35.261 511.995h68.237a7.5 7.5 0 0 0 7.501-7.501 7.5 7.5 0 0 0-7.501-7.501h-30.85l7.437-140.682a7.5 7.5 0 0 0-7.095-7.886c-4.128-.246-7.667 2.957-7.886 7.095l-1.564 29.589-38.26-4.014c.011-.108 7.067-64.731 8.351-69.896 6.956-27.368 36.649-28.564 55.041-33.983l23.06 29.518a14.905 14.905 0 0 0 11.735 5.721c8.342 0 11.964-6.294 14.167-8.027v36.297c0 4.143 3.357 7.501 7.501 7.501s7.501-3.357 7.501-7.501V304.43c2.136 1.679 6.155 8.531 15.046 8 9.887-.584 12.787-9.326 18.166-15.055-3.534 13.077-2.639 17.645-2.864 26.736-7.576 7.985-9.379 19.49-3.752 29.209-4.602 6.55-8.516 11.802-13.621 24.844-2.99 7.629-5.683 13.958-1.584 21 5.201 8.932 14.404 7.528 22.631 10.017 3.371.698 6.838.099 9.826-1.845 10.631-6.908 3.1-15.849 6.458-31.01 2.452 6.106 5.368 10.311 5.237 10.105 9.378 13.66 18.024 17.319 19.205 18.331h.001v-.001c.116.066.461.29 1.611.922v9.352c-26.673 6.643-35.691 8.125-43.351 13.446-2.795 1.953-5.023 4.022-4.732 3.761-7.833 7.157-9.562 14.722-9.827 15.271v.001l-.001.002v.001c-2.712 8.799-1.896 14.337-6.411 49.476H138.5a7.5 7.5 0 0 0-7.501 7.501 7.5 7.5 0 0 0 7.501 7.501h236.423a7.5 7.5 0 0 0 7.501-7.501 7.5 7.5 0 0 0-7.501-7.501h-26.518c-4.638-41.102-4.047-48.035-10.365-57.824-10.666-16.399-28.289-17.742-53.957-24.133v-9.247c1.139-.617 1.695-.964 1.806-1.028l.001.001c.261-.196 6.554-3.647 12.901-10.308 5.145-5.483 8.904-11.563 11.542-18.128 1.605 7.251.749 13.8.44 19.146-.348 5.97 3.272 11.146 8.493 13.134 4.93 1.878 7.813.386 19.601-1.965a15.711 15.711 0 0 0 11.731-10.485c1.632-4.989.404-8.658-.867-12.36-3.635-10.575-8.8-21.614-15.688-30.475 4.258-7.356 4.414-16.108.302-23.65 13.024-3.742 25.4-13.17 32.331-19.172 39.376 34.158 72.64 27.425 75.364-28.627 1.541.711 31.184 4.217 36.683 30.813 1.617 7.814 1.584 12.837 8.006 68.39l-37.96 3.983-1.561-29.539c-.219-4.138-3.795-7.339-7.886-7.095a7.5 7.5 0 0 0-7.095 7.886l7.437 140.682h-29.735a7.5 7.5 0 0 0-7.501 7.501 7.5 7.5 0 0 0 7.501 7.501h66.822c20.721 0 37.356-15.015 35.034-41.868a3.858 3.858 0 0 0-.019-.188c-17.952-160.428-16.983-153.627-18.352-160.29-4.383-21.189-21.354-35.686-40.957-40.641l-48.025-11.955v-2.311h45.118c10.703 0 19.426-8.641 19.559-19.313l5.614-95.146a7.501 7.501 0 0 0-7.047-7.93c-4.156-.266-7.686 2.91-7.93 7.046-5.872 99.615-5.638 95.349-5.638 95.782 0 2.471-2.088 4.559-4.559 4.559h-45.118V237.8c4.014-1.97 8.02-4.632 7.618-4.373 13.438-8.69 24.001-21.09 30.135-34.328 10.994-23.144 7.32-41.244 8.043-53.117 0-8.018-6.27-14.567-14.274-14.911h-.001c-54.9-2.354-83.27-33.484-90.656-42.968-4.947-6.354-14.371-6.584-19.673-.674-10.941 12.189-23.317 16.037-29.722 17.246-7.212 1.363-12.446 7.692-12.446 15.049.028 45.934-.062 43.459.071 46.962l-.003-.071c.089 2.265.312 5.123.628 7.569 5.444 41.972 39.267 60.399 37.788 59.443 2.944 1.909 5.08 3.011 7.019 4.031v2.086h-43.793c-2.471 0-4.559-2.087-4.559-4.559 0-.41-6.05-102.796-6.078-103.038-.089-.779-8.375-78.048 35.009-87.584 2.183-.48 4.013-1.859 5.035-3.848.76-1.428 19.315-34.831 78.397-23.328.293.057 2.867.897 3.089.97 53.423 17.695 61.477 67.198 61.838 67.855 1.44 6.404 2.11 12.615 2.218 18.759.072 4.142 3.514 7.401 7.631 7.369a7.5 7.5 0 0 0 7.369-7.631c-.144-8.211-1.194-16.037-2.786-22.663-.214-.331-10.676-58.142-71.456-77.899-2.397-.787-3.742-1.235-5.037-1.487-46.306-9.019-78.001 6.425-92.675 28.041-22.132 6.284-36.632 26.02-42.024 57.31-3.854 22.36-1.804 43.111-1.532 45.62 7.027 108.53 4.619 104.436 8.68 111.382-8.107-1.286-13.593-.851-14.156-.885h.267-.372c-3.073.431-25.875.059-46.749 18.951l-5.972-1.486-18.241-8.732v-15.224c47.158-23.579 45.437-74.251 45.47-74.351 20.516-4.47 30.048-25.256 18.894-40.89.001-.173.031-16.837-.097-24.525-2.767-66.882-69.243-115.2-136.571-91.954C76.094 18.3 52.115 47.955 44.664 83.032c-.155.812-.557 3.051-.614 3.534-1.257 8.124-1.463 14.974-1.198 35.829-11.162 15.642-1.614 36.424 18.897 40.891.423 35.092 20.158 61.529 45.83 74.527l-.001 14.875-18.993 9.092c-22.057 6.505-39.107 6.082-56.076 22.287-1.199 1.154-2.403 2.5-2.282 2.369-8.542 9.865-11.436 18.871-12.964 31.425L.244 469.938c-.008.064-.014.129-.02.193a59.965 59.965 0 0 0-.216 6.072c-.217 19.163 13.164 35.792 35.253 35.792zm27.027-111.933-4.869 96.932c-17.738-.957-28.614 2.753-36.565-5.307-3.425-3.472-5.683-8.518-5.845-15.626-.094-5.297.216-3.701 8.604-80.056l38.675 4.057zm105.584-156.468v10.922l-22.736 21.407-22.556-21.236v-11.043c15.131 4.174 30.537 4.106 45.292-.05zm-44.394 53.808-20.197-25.853 10.16-4.862 20.947 19.722-10.91 10.993zm43.315 0-10.909-10.995 21.067-19.836 10.137 4.852-20.295 25.979zm10.102 93.872c.001-.142 4.668-15.786 13.238-27.483.321.177.646.348.974.515-3.04 7.042-4.973 16.133-3.739 29.703-9.763-2.103-10.48-1.859-10.473-2.735zm21.94-39.919c-10.532-4.58-10.486-15.727 0-20.285v20.285zm58.506 61.347c6.792-.082 11.218-1.257 11.741-1.337.315 1.835-2.03 14.479 7.262 17.19-.042.219.242 4.116-1.889 8.605-1.199 1.517-3.64 8.603-14.002 10.917-2.523.495-4.856.342-4.756.345-2.834-.133-4.991-.884-4.891-.855-1.2-.4-2.386-.822-3.881-1.677l-.125-.073.059.035-.058-.036v-.001c-8.084-4.409-9.631-13.633-9.367-12.634-.15-.902-.584-3.199-.502-4.683 3.868-1.24 7.067-5.548 7.067-11.129v-6.045c6.923 1.633 13.965 1.378 13.342 1.378zm75.971 84.292h-20.094l-.785-14.842a7.5 7.5 0 0 0-7.885-7.094 7.5 7.5 0 0 0-7.095 7.886l.743 14.051H215.08l.743-14.051a7.5 7.5 0 0 0-7.095-7.886c-4.132-.245-7.667 2.957-7.886 7.095l-.785 14.842H179.77c5.437-48.256 3.968-36.474 4.972-42.495 3.859-17.688 22.145-17.846 37.363-22.286.197 2.062.513 3.512.747 4.63.14.351 1.042 5.402 4.238 10.559 10.078 15.035 27.959 19.439 42.501 13.539l.095-.038c13.315-5.614 20.305-17.021 21.48-28.642 13.925 3.522 23.183 5.077 28.207 8.915 11.115 8.475 9.118 13.036 13.939 55.817zm-44.613-113.739c-4.53 5.182-9.908 8.294-9.129 7.792-6.235 3.864-11.059 4.982-10.541 4.833a42.922 42.922 0 0 1-28.455-1.293c-22.99-9.196-25.888-31.543-25.997-31.751-1.536-7.328-.469-21.581-.74-35.054 11.09 1.244 30.687.844 42.8-14.307 12.116 15.152 31.712 15.552 42.801 14.307-.056 28.917.174 28.403-.358 32.701-1.886 14.567-10.928 23.394-10.381 22.772zm100.73-139.62v13.952c0 7.113 4.131 12.211 8.49 13.303l9.709 2.417c-22.161 25.897-59.964 25.661-81.892.006 9.961-2.519 9.935-2.378 11.016-2.869 4.377-1.981 7.207-7.029 7.207-12.856v-14.035c15.042 4.282 31.074 4.195 45.47.082zM325.907 394.01c.901-9.912.444-20.046-3.739-29.703.328-.167.653-.338.974-.515 5.816 7.947 10.182 17.907 13.204 27.283.022.07-.874.875-10.439 2.935zm4.343-78.756a73.564 73.564 0 0 0-3.633-20.541c6.767 4.879 14.308 8.48 22.318 10.627-5.733 4.11-12.45 8.094-18.685 9.914zm-15.81 36.1V331.07c10.408 4.525 10.596 15.676 0 20.284zm99.998-35.958c-8.725 3.642-22.455-4.572-30.122-10.107 15.032-4.075 29.147-13.596 39.2-28.026l3.657.91c-.623 20.899-5.084 34.033-12.735 37.223zm76.718 176.29c-7.953 8.06-18.76 4.348-36.472 5.307l-5.124-96.934 38.836-4.074c9.233 85.73 8.432 71.087 8.607 80.385.051 4.498-1.458 10.868-5.847 15.316zM298.455 163.361v-43.639c0-.154.097-.284.229-.309 7.926-1.496 22.905-6.089 36.37-20.103 12.065 14.683 43.283 44.273 100.171 46.743-.019 15.702.333 21.337-1.007 29.079-3.648 20.964-15.91 33.036-16.136 33.501-28.967 33.237-69.236 20.681-69.337 20.684-34.543-10.661-50.29-39.121-50.29-65.956zm30.501 93.691-23.224 5.781c-3.158-2.757-6.436-5.38-10.937-8.093h34.16l.001 2.312zm-13.711 58.507a33.697 33.697 0 0 0-3.858-.732 9.998 9.998 0 0 0-9.011-2.665c-23.677 4.788-32.956-5.875-35.846-10.682-4.484-7.461-15.296-7.472-19.788 0-2.889 4.806-12.16 15.468-35.849 10.682-3.164-.64-6.517.244-9.007 2.665-1.315.17-2.6.418-3.855.731.213-5.839 1.233-10.015 1.212-9.915 2.032-10.707 8.353-22.655 18.124-31.477 38.761-33.86 96.12-6.728 97.878 41.393zm-86.722-167.931v-21.627c11.455 4.727 11.457 16.901 0 21.627zM87.211 36.984l.102-.09c30.799-27.274 65.383-21.277 66.349-21.491 38.399 3.741 73.458 32.852 78.503 80.152.353 4.705.237 8.237.254 15.888a34.699 34.699 0 0 0-10.379-1.881c-5.032-2.88-8.762-7.701-10.382-14.937-1.2-5.79.453-12.84-7.189-19.215-13.184-11-25.835 4.617-89.844-2.198l-14.196-1.856c-10.39-1.618-20.843 5.855-21.189 17.932a41.915 41.915 0 0 1-.118 1.855c-1.242 14.097-10.654 18.029-10.891 18.419a34.718 34.718 0 0 0-10.382 1.881c.315-7.769-3.742-45.045 29.362-74.459zM61.75 126.001v21.63c-11.461-4.726-11.464-16.904 0-21.63zm17.031 53.975c-3.626-15.94-1.191-19.37-2.03-58.035.29-.439 16.798-8.757 17.507-32.657.242-9.604 17.399 7.59 97.893-3.108 1.975-.312 3.814 1.157 3.863 3.103.554 19.68 12.39 28.808 12.074 28.507 2.797 2.602 5.323 4.073 5.43 4.153.004 45.621.15 44.751-.568 50.308-5.459 41.924-48.098 69.592-88.918 56.167-.105-.07-35.783-10.279-45.251-48.438z" data-original="#000000"/>
</svg>
