<svg version="1.0" xmlns="http://www.w3.org/2000/svg" viewBox="0 0 100 100" xml:space="preserve">
  <svg xmlns="http://www.w3.org/2000/svg" xmlns:xlink="http://www.w3.org/1999/xlink" width="100" height="100" viewBox="0 0 2000 2000" shape-rendering="crispEdges">
    <path fill="#fff" d="M0 0h2000v2000H0z"/>
    <path d="M389 125h33v33h-33zm198 0h33v33h-33zm99 0h33v33h-33zm33 0h33v33h-33zm33 0h33v33h-33zm132 0h33v33h-33zm33 0h33v33h-33zm33 0h33v33h-33zm132 0h33v33h-33zm33 0h33v33h-33zm33 0h33v33h-33zm33 0h33v33h-33zm132 0h33v33h-33zm33 0h33v33h-33zm99 0h33v33h-33zm33 0h33v33h-33zm33 0h33v33h-33zM488 158h33v33h-33zm66 0h33v33h-33zm33 0h33v33h-33zm33 0h33v33h-33zm132 0h33v33h-33zm66 0h33v33h-33zm66 0h33v33h-33zm33 0h33v33h-33zm165 0h33v33h-33zm66 0h33v33h-33zm33 0h33v33h-33zm66 0h33v33h-33zm99 0h33v33h-33zm33 0h33v33h-33zm33 0h33v33h-33zm99 0h33v33h-33zm33 0h33v33h-33zM389 191h33v33h-33zm66 0h33v33h-33zm165 0h33v33h-33zm33 0h33v33h-33zm231 0h33v33h-33zm66 0h33v33h-33zm99 0h33v33h-33zm33 0h33v33h-33zm66 0h33v33h-33zm33 0h33v33h-33zm33 0h33v33h-33zm33 0h33v33h-33zm66 0h33v33h-33zm231 0h33v33h-33zM389 224h33v33h-33zm99 0h33v33h-33zm33 0h33v33h-33zm132 0h33v33h-33zm33 0h33v33h-33zm33 0h33v33h-33zm33 0h33v33h-33zm33 0h33v33h-33zm33 0h33v33h-33zm99 0h33v33h-33zm33 0h33v33h-33zm33 0h33v33h-33zm297 0h33v33h-33zm132 0h33v33h-33zm33 0h33v33h-33zm33 0h33v33h-33zm33 0h33v33h-33zm66 0h33v33h-33zM389 257h33v33h-33zm33 0h33v33h-33zm33 0h33v33h-33zm33 0h33v33h-33zm33 0h33v33h-33zm99 0h33v33h-33zm33 0h33v33h-33zm66 0h33v33h-33zm99 0h33v33h-33zm99 0h33v33h-33zm33 0h33v33h-33zm33 0h33v33h-33zm33 0h33v33h-33zm33 0h33v33h-33zm99 0h33v33h-33zm66 0h33v33h-33zm66 0h33v33h-33zm66 0h33v33h-33zm33 0h33v33h-33zm99 0h33v33h-33zm33 0h33v33h-33zM455 290h33v33h-33zm198 0h33v33h-33zm33 0h33v33h-33zm99 0h33v33h-33zm33 0h33v33h-33zm33 0h33v33h-33zm33 0h33v33h-33zm33 0h33v33h-33zm132 0h33v33h-33zm33 0h33v33h-33zm165 0h33v33h-33zm33 0h33v33h-33zm165 0h33v33h-33zm66 0h33v33h-33zM389 323h33v33h-33zm66 0h33v33h-33zm66 0h33v33h-33zm66 0h33v33h-33zm66 0h33v33h-33zm66 0h33v33h-33zm66 0h33v33h-33zm66 0h33v33h-33zm66 0h33v33h-33zm66 0h33v33h-33zm66 0h33v33h-33zm66 0h33v33h-33zm66 0h33v33h-33zm66 0h33v33h-33zm66 0h33v33h-33zm66 0h33v33h-33zm66 0h33v33h-33zm66 0h33v33h-33zm66 0h33v33h-33zM488 356h33v33h-33zm33 0h33v33h-33zm66 0h33v33h-33zm33 0h33v33h-33zm66 0h33v33h-33zm33 0h33v33h-33zm66 0h33v33h-33zm33 0h33v33h-33zm33 0h33v33h-33zm33 0h33v33h-33zm33 0h33v33h-33zm132 0h33v33h-33zm165 0h33v33h-33zm66 0h33v33h-33zm33 0h33v33h-33zm33 0h33v33h-33zm33 0h33v33h-33zm33 0h33v33h-33zm33 0h33v33h-33zm33 0h33v33h-33zm99 0h33v33h-33zM125 389h33v33h-33zm33 0h33v33h-33zm33 0h33v33h-33zm33 0h33v33h-33zm99 0h33v33h-33zm66 0h33v33h-33zm33 0h33v33h-33zm132 0h33v33h-33zm132 0h33v33h-33zm33 0h33v33h-33zm66 0h33v33h-33zm66 0h33v33h-33zm33 0h33v33h-33zm33 0h33v33h-33zm33 0h33v33h-33zm33 0h33v33h-33zm33 0h33v33h-33zm33 0h33v33h-33zm66 0h33v33h-33zm66 0h33v33h-33zm66 0h33v33h-33zm66 0h33v33h-33zm33 0h33v33h-33zm33 0h33v33h-33zm33 0h33v33h-33zm66 0h33v33h-33zm33 0h33v33h-33zm33 0h33v33h-33zm33 0h33v33h-33zm33 0h33v33h-33zm99 0h33v33h-33zm33 0h33v33h-33zm33 0h33v33h-33zm66 0h33v33h-33zM125 422h33v33h-33zm33 0h33v33h-33zm33 0h33v33h-33zm231 0h33v33h-33zm66 0h33v33h-33zm33 0h33v33h-33zm33 0h33v33h-33zm33 0h33v33h-33zm33 0h33v33h-33zm33 0h33v33h-33zm66 0h33v33h-33zm33 0h33v33h-33zm33 0h33v33h-33zm66 0h33v33h-33zm33 0h33v33h-33zm33 0h33v33h-33zm33 0h33v33h-33zm66 0h33v33h-33zm33 0h33v33h-33zm33 0h33v33h-33zm99 0h33v33h-33zm66 0h33v33h-33zm66 0h33v33h-33zm33 0h33v33h-33zm33 0h33v33h-33zm33 0h33v33h-33zm33 0h33v33h-33zm66 0h33v33h-33zm33 0h33v33h-33zm33 0h33v33h-33zm99 0h33v33h-33zm33 0h33v33h-33zm33 0h33v33h-33zm99 0h33v33h-33zM158 455h33v33h-33zm132 0h33v33h-33zm33 0h33v33h-33zm165 0h33v33h-33zm66 0h33v33h-33zm33 0h33v33h-33zm33 0h33v33h-33zm33 0h33v33h-33zm165 0h33v33h-33zm66 0h33v33h-33zm33 0h33v33h-33zm66 0h33v33h-33zm33 0h33v33h-33zm33 0h33v33h-33zm66 0h33v33h-33zm33 0h33v33h-33zm33 0h33v33h-33zm66 0h33v33h-33zm33 0h33v33h-33zm99 0h33v33h-33zm33 0h33v33h-33zm66 0h33v33h-33zm165 0h33v33h-33zm99 0h33v33h-33zm33 0h33v33h-33zm33 0h33v33h-33zM158 488h33v33h-33zm33 0h33v33h-33zm66 0h33v33h-33zm33 0h33v33h-33zm99 0h33v33h-33zm66 0h33v33h-33zm33 0h33v33h-33zm33 0h33v33h-33zm33 0h33v33h-33zm99 0h33v33h-33zm33 0h33v33h-33zm33 0h33v33h-33zm363 0h33v33h-33zm99 0h33v33h-33zm33 0h33v33h-33zm33 0h33v33h-33zm33 0h33v33h-33zm264 0h33v33h-33zm99 0h33v33h-33zm33 0h33v33h-33zm33 0h33v33h-33zm132 0h33v33h-33zM257 521h33v33h-33zm66 0h33v33h-33zm165 0h33v33h-33zm99 0h33v33h-33zm66 0h33v33h-33zm66 0h33v33h-33zm33 0h33v33h-33zm33 0h33v33h-33zm66 0h33v33h-33zm33 0h33v33h-33zm132 0h33v33h-33zm198 0h33v33h-33zm198 0h33v33h-33zm33 0h33v33h-33zm33 0h33v33h-33zm99 0h33v33h-33zm66 0h33v33h-33zM125 554h33v33h-33zm33 0h33v33h-33zm66 0h33v33h-33zm33 0h33v33h-33zm231 0h33v33h-33zm33 0h33v33h-33zm33 0h33v33h-33zm66 0h33v33h-33zm66 0h33v33h-33zm33 0h33v33h-33zm66 0h33v33h-33zm66 0h33v33h-33zm99 0h33v33h-33zm33 0h33v33h-33zm66 0h33v33h-33zm33 0h33v33h-33zm132 0h33v33h-33zm66 0h33v33h-33zm66 0h33v33h-33zm66 0h33v33h-33zm33 0h33v33h-33zm33 0h33v33h-33zm99 0h33v33h-33zm99 0h33v33h-33zm33 0h33v33h-33zm33 0h33v33h-33zm33 0h33v33h-33zm66 0h33v33h-33zM125 587h33v33h-33zm132 0h33v33h-33zm33 0h33v33h-33zm33 0h33v33h-33zm33 0h33v33h-33zm99 0h33v33h-33zm33 0h33v33h-33zm33 0h33v33h-33zm99 0h33v33h-33zm33 0h33v33h-33zm33 0h33v33h-33zm99 0h33v33h-33zm33 0h33v33h-33zm33 0h33v33h-33zm33 0h33v33h-33zm66 0h33v33h-33zm33 0h33v33h-33zm99 0h33v33h-33zm132 0h33v33h-33zm33 0h33v33h-33zm33 0h33v33h-33zm165 0h33v33h-33zm33 0h33v33h-33zm99 0h33v33h-33zm33 0h33v33h-33zm132 0h33v33h-33zM125 620h33v33h-33zm33 0h33v33h-33zm33 0h33v33h-33zm33 0h33v33h-33zm33 0h33v33h-33zm33 0h33v33h-33zm66 0h33v33h-33zm66 0h33v33h-33zm66 0h33v33h-33zm33 0h33v33h-33zm330 0h33v33h-33zm66 0h33v33h-33zm33 0h33v33h-33zm33 0h33v33h-33zm33 0h33v33h-33zm66 0h33v33h-33zm33 0h33v33h-33zm33 0h33v33h-33zm66 0h33v33h-33zm66 0h33v33h-33zm66 0h33v33h-33zm66 0h33v33h-33zm99 0h33v33h-33zm264 0h33v33h-33zm33 0h33v33h-33zM125 653h33v33h-33zm33 0h33v33h-33zm66 0h33v33h-33zm33 0h33v33h-33zm33 0h33v33h-33zm33 0h33v33h-33zm33 0h33v33h-33zm66 0h33v33h-33zm66 0h33v33h-33zm33 0h33v33h-33zm66 0h33v33h-33zm132 0h33v33h-33zm66 0h33v33h-33zm33 0h33v33h-33zm66 0h33v33h-33zm33 0h33v33h-33zm33 0h33v33h-33zm132 0h33v33h-33zm33 0h33v33h-33zm66 0h33v33h-33zm33 0h33v33h-33zm33 0h33v33h-33zm33 0h33v33h-33zm198 0h33v33h-33zm66 0h33v33h-33zm132 0h33v33h-33zm33 0h33v33h-33zm33 0h33v33h-33zm33 0h33v33h-33zM224 686h33v33h-33zm396 0h33v33h-33zm33 0h33v33h-33zm33 0h33v33h-33zm33 0h33v33h-33zm33 0h33v33h-33zm99 0h33v33h-33zm33 0h33v33h-33zm132 0h33v33h-33zm33 0h33v33h-33zm33 0h33v33h-33zm33 0h33v33h-33zm33 0h33v33h-33zm132 0h33v33h-33zm33 0h33v33h-33zm66 0h33v33h-33zm33 0h33v33h-33zm99 0h33v33h-33zm33 0h33v33h-33zm66 0h33v33h-33zm33 0h33v33h-33zm165 0h33v33h-33zm33 0h33v33h-33zM125 719h33v33h-33zm66 0h33v33h-33zm66 0h33v33h-33zm33 0h33v33h-33zm33 0h33v33h-33zm33 0h33v33h-33zm33 0h33v33h-33zm33 0h33v33h-33zm33 0h33v33h-33zm165 0h33v33h-33zm66 0h33v33h-33zm33 0h33v33h-33zm33 0h33v33h-33zm33 0h33v33h-33zm99 0h33v33h-33zm66 0h33v33h-33zm198 0h33v33h-33zm66 0h33v33h-33zm33 0h33v33h-33zm33 0h33v33h-33zm33 0h33v33h-33zm33 0h33v33h-33zm33 0h33v33h-33zm165 0h33v33h-33zm33 0h33v33h-33zm132 0h33v33h-33zM191 752h33v33h-33zm66 0h33v33h-33zm33 0h33v33h-33zm66 0h33v33h-33zm33 0h33v33h-33zm99 0h33v33h-33zm66 0h33v33h-33zm66 0h33v33h-33zm66 0h33v33h-33zm33 0h33v33h-33zm33 0h33v33h-33zm33 0h33v33h-33zm66 0h33v33h-33zm66 0h33v33h-33zm66 0h33v33h-33zm66 0h33v33h-33zm99 0h33v33h-33zm66 0h33v33h-33zm99 0h33v33h-33zm33 0h33v33h-33zm33 0h33v33h-33zm99 0h33v33h-33zm99 0h33v33h-33zm99 0h33v33h-33zm33 0h33v33h-33zm33 0h33v33h-33zm33 0h33v33h-33zM125 785h33v33h-33zm99 0h33v33h-33zm66 0h33v33h-33zm33 0h33v33h-33zm231 0h33v33h-33zm33 0h33v33h-33zm33 0h33v33h-33zm66 0h33v33h-33zm99 0h33v33h-33zm33 0h33v33h-33zm33 0h33v33h-33zm99 0h33v33h-33zm33 0h33v33h-33zm33 0h33v33h-33zm33 0h33v33h-33zm66 0h33v33h-33zm33 0h33v33h-33zm66 0h33v33h-33zm33 0h33v33h-33zm66 0h33v33h-33zm33 0h33v33h-33zm132 0h33v33h-33zm33 0h33v33h-33zm66 0h33v33h-33zm33 0h33v33h-33zm99 0h33v33h-33zm99 0h33v33h-33zm33 0h33v33h-33zM158 818h33v33h-33zm33 0h33v33h-33zm33 0h33v33h-33zm33 0h33v33h-33zm99 0h33v33h-33zm99 0h33v33h-33zm33 0h33v33h-33zm33 0h33v33h-33zm33 0h33v33h-33zm33 0h33v33h-33zm33 0h33v33h-33zm33 0h33v33h-33zm33 0h33v33h-33zm33 0h33v33h-33zm99 0h33v33h-33zm66 0h33v33h-33zm33 0h33v33h-33zm33 0h33v33h-33zm99 0h33v33h-33zm33 0h33v33h-33zm66 0h33v33h-33zm33 0h33v33h-33zm33 0h33v33h-33zm66 0h33v33h-33zm231 0h33v33h-33zm99 0h33v33h-33zm66 0h33v33h-33zm66 0h33v33h-33zm66 0h33v33h-33zm33 0h33v33h-33zM125 851h33v33h-33zm33 0h33v33h-33zm33 0h33v33h-33zm66 0h33v33h-33zm66 0h33v33h-33zm33 0h33v33h-33zm33 0h33v33h-33zm66 0h33v33h-33zm99 0h33v33h-33zm33 0h33v33h-33zm33 0h33v33h-33zm33 0h33v33h-33zm99 0h33v33h-33zm66 0h33v33h-33zm66 0h33v33h-33zm264 0h33v33h-33zm33 0h33v33h-33zm66 0h33v33h-33zm33 0h33v33h-33zm66 0h33v33h-33zm33 0h33v33h-33zm33 0h33v33h-33zm132 0h33v33h-33zm132 0h33v33h-33zm99 0h33v33h-33zm66 0h33v33h-33zM158 884h33v33h-33zm99 0h33v33h-33zm33 0h33v33h-33zm132 0h33v33h-33zm66 0h33v33h-33zm33 0h33v33h-33zm132 0h33v33h-33zm33 0h33v33h-33zm33 0h33v33h-33zm33 0h33v33h-33zm165 0h33v33h-33zm66 0h33v33h-33zm33 0h33v33h-33zm66 0h33v33h-33zm66 0h33v33h-33zm66 0h33v33h-33zm33 0h33v33h-33zm33 0h33v33h-33zm132 0h33v33h-33zm66 0h33v33h-33zm66 0h33v33h-33zm66 0h33v33h-33zm33 0h33v33h-33zm132 0h33v33h-33zm33 0h33v33h-33zM191 917h33v33h-33zm33 0h33v33h-33zm33 0h33v33h-33zm33 0h33v33h-33zm33 0h33v33h-33zm33 0h33v33h-33zm33 0h33v33h-33zm33 0h33v33h-33zm33 0h33v33h-33zm66 0h33v33h-33zm99 0h33v33h-33zm33 0h33v33h-33zm66 0h33v33h-33zm33 0h33v33h-33zm33 0h33v33h-33zm33 0h33v33h-33zm33 0h33v33h-33zm66 0h33v33h-33zm33 0h33v33h-33zm33 0h33v33h-33zm33 0h33v33h-33zm33 0h33v33h-33zm165 0h33v33h-33zm132 0h33v33h-33zm33 0h33v33h-33zm66 0h33v33h-33zm66 0h33v33h-33zm66 0h33v33h-33zm33 0h33v33h-33zm33 0h33v33h-33zm33 0h33v33h-33zm33 0h33v33h-33zm66 0h33v33h-33zm33 0h33v33h-33zM224 950h33v33h-33zm33 0h33v33h-33zm132 0h33v33h-33zm33 0h33v33h-33zm33 0h33v33h-33zm165 0h33v33h-33zm33 0h33v33h-33zm66 0h33v33h-33zm33 0h33v33h-33zm66 0h33v33h-33zm99 0h33v33h-33zm132 0h33v33h-33zm66 0h33v33h-33zm99 0h33v33h-33zm33 0h33v33h-33zm33 0h33v33h-33zm33 0h33v33h-33zm66 0h33v33h-33zm66 0h33v33h-33zm66 0h33v33h-33zm33 0h33v33h-33zm33 0h33v33h-33zm132 0h33v33h-33zm33 0h33v33h-33zm33 0h33v33h-33zm66 0h33v33h-33zM125 983h33v33h-33zm33 0h33v33h-33zm99 0h33v33h-33zm66 0h33v33h-33zm66 0h33v33h-33zm33 0h33v33h-33zm99 0h33v33h-33zm132 0h33v33h-33zm33 0h33v33h-33zm66 0h33v33h-33zm33 0h33v33h-33zm33 0h33v33h-33zm33 0h33v33h-33zm33 0h33v33h-33zm33 0h33v33h-33zm66 0h33v33h-33zm66 0h33v33h-33zm33 0h33v33h-33zm33 0h33v33h-33zm33 0h33v33h-33zm66 0h33v33h-33zm66 0h33v33h-33zm99 0h33v33h-33zm33 0h33v33h-33zm33 0h33v33h-33zm66 0h33v33h-33zm33 0h33v33h-33zm33 0h33v33h-33zm66 0h33v33h-33zm66 0h33v33h-33zm33 0h33v33h-33zm99 0h33v33h-33zm-1683 33h33v33h-33zm99 0h33v33h-33zm132 0h33v33h-33zm33 0h33v33h-33zm132 0h33v33h-33zm198 0h33v33h-33zm99 0h33v33h-33zm66 0h33v33h-33zm132 0h33v33h-33zm33 0h33v33h-33zm33 0h33v33h-33zm33 0h33v33h-33zm132 0h33v33h-33zm66 0h33v33h-33zm165 0h33v33h-33zm33 0h33v33h-33zm33 0h33v33h-33zm132 0h33v33h-33zm33 0h33v33h-33zm33 0h33v33h-33zm33 0h33v33h-33zm-1683 33h33v33h-33zm33 0h33v33h-33zm33 0h33v33h-33zm66 0h33v33h-33zm33 0h33v33h-33zm33 0h33v33h-33zm33 0h33v33h-33zm33 0h33v33h-33zm99 0h33v33h-33zm33 0h33v33h-33zm33 0h33v33h-33zm33 0h33v33h-33zm297 0h33v33h-33zm33 0h33v33h-33zm33 0h33v33h-33zm33 0h33v33h-33zm33 0h33v33h-33zm33 0h33v33h-33zm33 0h33v33h-33zm33 0h33v33h-33zm165 0h33v33h-33zm33 0h33v33h-33zm66 0h33v33h-33zm99 0h33v33h-33zm66 0h33v33h-33zm33 0h33v33h-33zm33 0h33v33h-33zm33 0h33v33h-33zm33 0h33v33h-33zm33 0h33v33h-33zm66 0h33v33h-33zm33 0h33v33h-33zm-1683 33h33v33h-33zm66 0h33v33h-33zm33 0h33v33h-33zm66 0h33v33h-33zm66 0h33v33h-33zm33 0h33v33h-33zm132 0h33v33h-33zm33 0h33v33h-33zm33 0h33v33h-33zm33 0h33v33h-33zm66 0h33v33h-33zm66 0h33v33h-33zm132 0h33v33h-33zm132 0h33v33h-33zm33 0h33v33h-33zm33 0h33v33h-33zm99 0h33v33h-33zm33 0h33v33h-33zm132 0h33v33h-33zm33 0h33v33h-33zm66 0h33v33h-33zm66 0h33v33h-33zm99 0h33v33h-33zm33 0h33v33h-33zm33 0h33v33h-33zm66 0h33v33h-33zm66 0h33v33h-33zm33 0h33v33h-33zm-1650 33h33v33h-33zm33 0h33v33h-33zm66 0h33v33h-33zm33 0h33v33h-33zm66 0h33v33h-33zm33 0h33v33h-33zm33 0h33v33h-33zm66 0h33v33h-33zm33 0h33v33h-33zm66 0h33v33h-33zm99 0h33v33h-33zm33 0h33v33h-33zm33 0h33v33h-33zm99 0h33v33h-33zm132 0h33v33h-33zm33 0h33v33h-33zm33 0h33v33h-33zm33 0h33v33h-33zm33 0h33v33h-33zm66 0h33v33h-33zm33 0h33v33h-33zm33 0h33v33h-33zm33 0h33v33h-33zm33 0h33v33h-33zm264 0h33v33h-33zm99 0h33v33h-33zm33 0h33v33h-33zm33 0h33v33h-33zm-1617 33h33v33h-33zm330 0h33v33h-33zm99 0h33v33h-33zm33 0h33v33h-33zm66 0h33v33h-33zm33 0h33v33h-33zm66 0h33v33h-33zm33 0h33v33h-33zm33 0h33v33h-33zm99 0h33v33h-33zm66 0h33v33h-33zm132 0h33v33h-33zm66 0h33v33h-33zm66 0h33v33h-33zm99 0h33v33h-33zm66 0h33v33h-33zm33 0h33v33h-33zm99 0h33v33h-33zm66 0h33v33h-33zm-1518 33h33v33h-33zm33 0h33v33h-33zm99 0h33v33h-33zm66 0h33v33h-33zm33 0h33v33h-33zm66 0h33v33h-33zm33 0h33v33h-33zm33 0h33v33h-33zm132 0h33v33h-33zm33 0h33v33h-33zm33 0h33v33h-33zm33 0h33v33h-33zm33 0h33v33h-33zm33 0h33v33h-33zm66 0h33v33h-33zm66 0h33v33h-33zm33 0h33v33h-33zm33 0h33v33h-33zm33 0h33v33h-33zm66 0h33v33h-33zm33 0h33v33h-33zm33 0h33v33h-33zm66 0h33v33h-33zm66 0h33v33h-33zm99 0h33v33h-33zm33 0h33v33h-33zm66 0h33v33h-33zm33 0h33v33h-33zm66 0h33v33h-33zm66 0h33v33h-33zm99 0h33v33h-33zm33 0h33v33h-33zm33 0h33v33h-33zm33 0h33v33h-33zm-1683 33h33v33h-33zm66 0h33v33h-33zm33 0h33v33h-33zm33 0h33v33h-33zm99 0h33v33h-33zm33 0h33v33h-33zm33 0h33v33h-33zm66 0h33v33h-33zm231 0h33v33h-33zm33 0h33v33h-33zm66 0h33v33h-33zm33 0h33v33h-33zm33 0h33v33h-33zm66 0h33v33h-33zm132 0h33v33h-33zm33 0h33v33h-33zm33 0h33v33h-33zm33 0h33v33h-33zm66 0h33v33h-33zm99 0h33v33h-33zm33 0h33v33h-33zm33 0h33v33h-33zm99 0h33v33h-33zm99 0h33v33h-33zm33 0h33v33h-33zm132 0h33v33h-33zm-1683 33h33v33h-33zm66 0h33v33h-33zm33 0h33v33h-33zm99 0h33v33h-33zm99 0h33v33h-33zm66 0h33v33h-33zm66 0h33v33h-33zm33 0h33v33h-33zm231 0h33v33h-33zm66 0h33v33h-33zm99 0h33v33h-33zm33 0h33v33h-33zm33 0h33v33h-33zm33 0h33v33h-33zm66 0h33v33h-33zm33 0h33v33h-33zm66 0h33v33h-33zm99 0h33v33h-33zm66 0h33v33h-33zm66 0h33v33h-33zm33 0h33v33h-33zm66 0h33v33h-33zm33 0h33v33h-33zm66 0h33v33h-33zm66 0h33v33h-33zm66 0h33v33h-33zm-1650 33h33v33h-33zm33 0h33v33h-33zm33 0h33v33h-33zm33 0h33v33h-33zm33 0h33v33h-33zm66 0h33v33h-33zm165 0h33v33h-33zm33 0h33v33h-33zm66 0h33v33h-33zm33 0h33v33h-33zm66 0h33v33h-33zm198 0h33v33h-33zm33 0h33v33h-33zm66 0h33v33h-33zm66 0h33v33h-33zm99 0h33v33h-33zm33 0h33v33h-33zm33 0h33v33h-33zm66 0h33v33h-33zm165 0h33v33h-33zm99 0h33v33h-33zm99 0h33v33h-33zm66 0h33v33h-33zm33 0h33v33h-33zm-1650 33h33v33h-33zm33 0h33v33h-33zm33 0h33v33h-33zm99 0h33v33h-33zm33 0h33v33h-33zm33 0h33v33h-33zm66 0h33v33h-33zm132 0h33v33h-33zm33 0h33v33h-33zm132 0h33v33h-33zm33 0h33v33h-33zm66 0h33v33h-33zm33 0h33v33h-33zm66 0h33v33h-33zm66 0h33v33h-33zm33 0h33v33h-33zm33 0h33v33h-33zm33 0h33v33h-33zm99 0h33v33h-33zm33 0h33v33h-33zm99 0h33v33h-33zm165 0h33v33h-33zm33 0h33v33h-33zm33 0h33v33h-33zm198 0h33v33h-33zm33 0h33v33h-33zm66 0h33v33h-33zm-1650 33h33v33h-33zm66 0h33v33h-33zm231 0h33v33h-33zm33 0h33v33h-33zm33 0h33v33h-33zm66 0h33v33h-33zm99 0h33v33h-33zm33 0h33v33h-33zm33 0h33v33h-33zm33 0h33v33h-33zm66 0h33v33h-33zm33 0h33v33h-33zm99 0h33v33h-33zm66 0h33v33h-33zm132 0h33v33h-33zm132 0h33v33h-33zm264 0h33v33h-33zm66 0h33v33h-33zm66 0h33v33h-33zm33 0h33v33h-33zm33 0h33v33h-33zm33 0h33v33h-33zm-1716 33h33v33h-33zm33 0h33v33h-33zm99 0h33v33h-33zm66 0h33v33h-33zm99 0h33v33h-33zm132 0h33v33h-33zm99 0h33v33h-33zm33 0h33v33h-33zm99 0h33v33h-33zm33 0h33v33h-33zm33 0h33v33h-33zm33 0h33v33h-33zm66 0h33v33h-33zm66 0h33v33h-33zm33 0h33v33h-33zm66 0h33v33h-33zm99 0h33v33h-33zm33 0h33v33h-33zm33 0h33v33h-33zm66 0h33v33h-33zm66 0h33v33h-33zm33 0h33v33h-33zm99 0h33v33h-33zm33 0h33v33h-33zm66 0h33v33h-33zm33 0h33v33h-33zm165 0h33v33h-33zm-1617 33h33v33h-33zm33 0h33v33h-33zm33 0h33v33h-33zm66 0h33v33h-33zm165 0h33v33h-33zm297 0h33v33h-33zm132 0h33v33h-33zm33 0h33v33h-33zm33 0h33v33h-33zm33 0h33v33h-33zm33 0h33v33h-33zm33 0h33v33h-33zm33 0h33v33h-33zm132 0h33v33h-33zm66 0h33v33h-33zm99 0h33v33h-33zm33 0h33v33h-33zm33 0h33v33h-33zm33 0h33v33h-33zm33 0h33v33h-33zm66 0h33v33h-33zm33 0h33v33h-33zm33 0h33v33h-33zm33 0h33v33h-33zm66 0h33v33h-33zm-1683 33h33v33h-33zm33 0h33v33h-33zm165 0h33v33h-33zm33 0h33v33h-33zm99 0h33v33h-33zm33 0h33v33h-33zm99 0h33v33h-33zm66 0h33v33h-33zm33 0h33v33h-33zm66 0h33v33h-33zm132 0h33v33h-33zm33 0h33v33h-33zm132 0h33v33h-33zm33 0h33v33h-33zm33 0h33v33h-33zm132 0h33v33h-33zm33 0h33v33h-33zm99 0h33v33h-33zm33 0h33v33h-33zm33 0h33v33h-33zm33 0h33v33h-33zm198 0h33v33h-33zm132 0h33v33h-33zm-1683 33h33v33h-33zm66 0h33v33h-33zm66 0h33v33h-33zm33 0h33v33h-33zm132 0h33v33h-33zm33 0h33v33h-33zm33 0h33v33h-33zm33 0h33v33h-33zm33 0h33v33h-33zm132 0h33v33h-33zm33 0h33v33h-33zm66 0h33v33h-33zm33 0h33v33h-33zm33 0h33v33h-33zm33 0h33v33h-33zm99 0h33v33h-33zm33 0h33v33h-33zm33 0h33v33h-33zm33 0h33v33h-33zm33 0h33v33h-33zm33 0h33v33h-33zm33 0h33v33h-33zm33 0h33v33h-33zm33 0h33v33h-33zm33 0h33v33h-33zm33 0h33v33h-33zm66 0h33v33h-33zm231 0h33v33h-33zm66 0h33v33h-33zm33 0h33v33h-33zm132 0h33v33h-33zm-1716 33h33v33h-33zm33 0h33v33h-33zm66 0h33v33h-33zm33 0h33v33h-33zm33 0h33v33h-33zm33 0h33v33h-33zm198 0h33v33h-33zm99 0h33v33h-33zm66 0h33v33h-33zm33 0h33v33h-33zm66 0h33v33h-33zm33 0h33v33h-33zm66 0h33v33h-33zm66 0h33v33h-33zm66 0h33v33h-33zm66 0h33v33h-33zm66 0h33v33h-33zm132 0h33v33h-33zm33 0h33v33h-33zm33 0h33v33h-33zm33 0h33v33h-33zm99 0h33v33h-33zm33 0h33v33h-33zm66 0h33v33h-33zm33 0h33v33h-33zm33 0h33v33h-33zm66 0h33v33h-33zm-1551 33h33v33h-33zm33 0h33v33h-33zm165 0h33v33h-33zm66 0h33v33h-33zm33 0h33v33h-33zm33 0h33v33h-33zm198 0h33v33h-33zm33 0h33v33h-33zm33 0h33v33h-33zm33 0h33v33h-33zm33 0h33v33h-33zm33 0h33v33h-33zm99 0h33v33h-33zm33 0h33v33h-33zm33 0h33v33h-33zm33 0h33v33h-33zm99 0h33v33h-33zm66 0h33v33h-33zm99 0h33v33h-33zm66 0h33v33h-33zm33 0h33v33h-33zm33 0h33v33h-33zm99 0h33v33h-33zm66 0h33v33h-33zm165 0h33v33h-33zm66 0h33v33h-33zm-1617 33h33v33h-33zm99 0h33v33h-33zm33 0h33v33h-33zm66 0h33v33h-33zm66 0h33v33h-33zm99 0h33v33h-33zm66 0h33v33h-33zm33 0h33v33h-33zm231 0h33v33h-33zm33 0h33v33h-33zm33 0h33v33h-33zm33 0h33v33h-33zm33 0h33v33h-33zm99 0h33v33h-33zm66 0h33v33h-33zm33 0h33v33h-33zm33 0h33v33h-33zm33 0h33v33h-33zm66 0h33v33h-33zm198 0h33v33h-33zm33 0h33v33h-33zm33 0h33v33h-33zm33 0h33v33h-33zm33 0h33v33h-33zm66 0h33v33h-33zm-1386 33h33v33h-33zm99 0h33v33h-33zm33 0h33v33h-33zm33 0h33v33h-33zm132 0h33v33h-33zm33 0h33v33h-33zm132 0h33v33h-33zm66 0h33v33h-33zm132 0h33v33h-33zm66 0h33v33h-33zm33 0h33v33h-33zm33 0h33v33h-33zm132 0h33v33h-33zm66 0h33v33h-33zm66 0h33v33h-33zm33 0h33v33h-33zm33 0h33v33h-33zm66 0h33v33h-33zm132 0h33v33h-33zm33 0h33v33h-33zm-1254 33h33v33h-33zm99 0h33v33h-33zm33 0h33v33h-33zm132 0h33v33h-33zm66 0h33v33h-33zm99 0h33v33h-33zm66 0h33v33h-33zm66 0h33v33h-33zm33 0h33v33h-33zm66 0h33v33h-33zm33 0h33v33h-33zm165 0h33v33h-33zm231 0h33v33h-33zm66 0h33v33h-33zm66 0h33v33h-33zm66 0h33v33h-33zm66 0h33v33h-33zm-1386 33h33v33h-33zm66 0h33v33h-33zm33 0h33v33h-33zm33 0h33v33h-33zm33 0h33v33h-33zm33 0h33v33h-33zm66 0h33v33h-33zm33 0h33v33h-33zm165 0h33v33h-33zm132 0h33v33h-33zm33 0h33v33h-33zm66 0h33v33h-33zm66 0h33v33h-33zm33 0h33v33h-33zm33 0h33v33h-33zm165 0h33v33h-33zm33 0h33v33h-33zm99 0h33v33h-33zm132 0h33v33h-33zm33 0h33v33h-33zm99 0h33v33h-33zm-1419 33h33v33h-33zm33 0h33v33h-33zm33 0h33v33h-33zm66 0h33v33h-33zm33 0h33v33h-33zm99 0h33v33h-33zm165 0h33v33h-33zm66 0h33v33h-33zm33 0h33v33h-33zm33 0h33v33h-33zm33 0h33v33h-33zm33 0h33v33h-33zm33 0h33v33h-33zm66 0h33v33h-33zm99 0h33v33h-33zm33 0h33v33h-33zm33 0h33v33h-33zm33 0h33v33h-33zm33 0h33v33h-33zm198 0h33v33h-33zm33 0h33v33h-33zm33 0h33v33h-33zm33 0h33v33h-33zm33 0h33v33h-33zm33 0h33v33h-33zm33 0h33v33h-33zm-1386 33h33v33h-33zm66 0h33v33h-33zm33 0h33v33h-33zm33 0h33v33h-33zm33 0h33v33h-33zm66 0h33v33h-33zm33 0h33v33h-33zm66 0h33v33h-33zm33 0h33v33h-33zm33 0h33v33h-33zm66 0h33v33h-33zm99 0h33v33h-33zm33 0h33v33h-33zm66 0h33v33h-33zm99 0h33v33h-33zm132 0h33v33h-33zm33 0h33v33h-33zm66 0h33v33h-33zm33 0h33v33h-33zm33 0h33v33h-33zm66 0h33v33h-33zm33 0h33v33h-33zm66 0h33v33h-33zm132 0h33v33h-33zm33 0h33v33h-33zm33 0h33v33h-33zm-1419 33h33v33h-33zm99 0h33v33h-33zm99 0h33v33h-33zm198 0h33v33h-33zm66 0h33v33h-33zm33 0h33v33h-33zm132 0h33v33h-33zm33 0h33v33h-33zm33 0h33v33h-33zm132 0h33v33h-33zm66 0h33v33h-33zm66 0h33v33h-33zm33 0h33v33h-33zm33 0h33v33h-33zm33 0h33v33h-33zm66 0h33v33h-33zm33 0h33v33h-33zm99 0h33v33h-33zm99 0h33v33h-33zm99 0h33v33h-33zm-1452 33h33v33h-33zm66 0h33v33h-33zm99 0h33v33h-33zm165 0h33v33h-33zm33 0h33v33h-33zm99 0h33v33h-33zm33 0h33v33h-33zm132 0h33v33h-33zm66 0h33v33h-33zm33 0h33v33h-33zm66 0h33v33h-33zm33 0h33v33h-33zm66 0h33v33h-33zm66 0h33v33h-33zm66 0h33v33h-33zm66 0h33v33h-33zm33 0h33v33h-33zm33 0h33v33h-33zm33 0h33v33h-33zm33 0h33v33h-33zm33 0h33v33h-33zm66 0h33v33h-33zm33 0h33v33h-33zm99 0h33v33h-33zm-1452 33h33v33h-33zm165 0h33v33h-33zm99 0h33v33h-33zm33 0h33v33h-33zm33 0h33v33h-33zm33 0h33v33h-33zm99 0h33v33h-33zm33 0h33v33h-33zm33 0h33v33h-33zm33 0h33v33h-33zm66 0h33v33h-33zm33 0h33v33h-33zm33 0h33v33h-33zm33 0h33v33h-33zm99 0h33v33h-33zm33 0h33v33h-33zm99 0h33v33h-33zm33 0h33v33h-33zm33 0h33v33h-33zm33 0h33v33h-33zm33 0h33v33h-33zm99 0h33v33h-33zm33 0h33v33h-33zm132 0h33v33h-33zm33 0h33v33h-33zm33 0h33v33h-33z"/>
    <svg x="125" y="125" width="231" height="231" viewBox="0 0 699.988 699.986" xml:space="preserve" shape-rendering="auto">
      <path d="M600.99 0H1v699.986h699.988V0H600.99zm0 199.996v399.992H100.999V99.998H600.99v99.998z"/>
    </svg>
    <svg version="1.0" x="125" y="125" width="231" height="231" viewBox="0 0 699.988 699.988" xml:space="preserve" shape-rendering="auto">
      <path d="M399.994 199.997H199.998v299.994H499.99V199.997z"/>
    </svg>
    <svg x="1643" y="125" width="231" height="231" viewBox="0 0 699.988 699.986" xml:space="preserve" shape-rendering="auto">
      <path d="M600.99 0H1v699.986h699.988V0H600.99zm0 199.996v399.992H100.999V99.998H600.99v99.998z"/>
    </svg>
    <svg version="1.0" x="1643" y="125" width="231" height="231" viewBox="0 0 699.988 699.988" xml:space="preserve" shape-rendering="auto">
      <path d="M399.994 199.997H199.998v299.994H499.99V199.997z"/>
    </svg>
    <svg x="125" y="1643" width="231" height="231" viewBox="0 0 699.988 699.986" xml:space="preserve" shape-rendering="auto">
      <path d="M600.99 0H1v699.986h699.988V0H600.99zm0 199.996v399.992H100.999V99.998H600.99v99.998z"/>
    </svg>
    <svg version="1.0" x="125" y="1643" width="231" height="231" viewBox="0 0 699.988 699.988" xml:space="preserve" shape-rendering="auto">
      <path d="M399.994 199.997H199.998v299.994H499.99V199.997z"/>
    </svg>
  </svg>
</svg>
